<mxfile host="app.diagrams.net" modified="2024-05-07T15:34:38.736Z" agent="Mozilla/5.0 (Windows NT 10.0; Win64; x64) AppleWebKit/537.36 (KHTML, like Gecko) Chrome/124.0.0.0 Safari/537.36" etag="-1NL0jOLX80f1HBoV_Ye" scale="1" border="0" version="24.2.8" type="device">
  <diagram name="Página-1" id="sqY4V82aOJ0udqsHbrzY">
    <mxGraphModel dx="820" dy="391" grid="1" gridSize="10" guides="1" tooltips="1" connect="1" arrows="1" fold="1" page="1" pageScale="1" pageWidth="827" pageHeight="1169" math="0" shadow="0">
      <root>
        <mxCell id="0" />
        <mxCell id="1" parent="0" />
        <mxCell id="ktj9ehFPyblQwlTAzXCF-14" style="edgeStyle=orthogonalEdgeStyle;rounded=0;orthogonalLoop=1;jettySize=auto;html=1;exitX=0;exitY=0;exitDx=180;exitDy=95;exitPerimeter=0;" edge="1" parent="1" source="ktj9ehFPyblQwlTAzXCF-1" target="ktj9ehFPyblQwlTAzXCF-11">
          <mxGeometry relative="1" as="geometry" />
        </mxCell>
        <mxCell id="ktj9ehFPyblQwlTAzXCF-1" value="DISPOSITIVO MÓVIL" style="verticalAlign=top;align=left;spacingTop=8;spacingLeft=2;spacingRight=12;shape=cube;size=10;direction=south;fontStyle=4;html=1;whiteSpace=wrap;" vertex="1" parent="1">
          <mxGeometry x="90" y="20" width="180" height="180" as="geometry" />
        </mxCell>
        <mxCell id="GIH3jngs8zzukAOBeERF-3" value="Sistema Operativo" style="text;strokeColor=none;fillColor=none;align=left;verticalAlign=middle;spacingLeft=4;spacingRight=4;overflow=hidden;points=[[0,0.5],[1,0.5]];portConstraint=eastwest;rotatable=0;whiteSpace=wrap;html=1;" parent="1" vertex="1">
          <mxGeometry x="90" y="50" width="160" height="30" as="geometry" />
        </mxCell>
        <mxCell id="GIH3jngs8zzukAOBeERF-4" value="&amp;nbsp;&lt;span style=&quot;white-space: pre;&quot;&gt;&#x9;&lt;/span&gt;-IOS&lt;div&gt;&lt;span style=&quot;white-space: pre;&quot;&gt;&#x9;&lt;/span&gt;-ANDROID&lt;br&gt;&lt;/div&gt;&lt;div&gt;&lt;span style=&quot;white-space: pre;&quot;&gt;&#x9;&lt;/span&gt;&lt;br&gt;&lt;/div&gt;" style="text;strokeColor=none;fillColor=none;align=left;verticalAlign=middle;spacingLeft=4;spacingRight=4;overflow=hidden;points=[[0,0.5],[1,0.5]];portConstraint=eastwest;rotatable=0;whiteSpace=wrap;html=1;" parent="1" vertex="1">
          <mxGeometry x="100" y="70" width="160" height="30" as="geometry" />
        </mxCell>
        <mxCell id="GIH3jngs8zzukAOBeERF-5" value="Accede mediante:&lt;div&gt;&lt;span style=&quot;white-space: pre;&quot;&gt;&#x9;&lt;/span&gt;-Navegador Web&lt;br&gt;&lt;/div&gt;&lt;div&gt;&lt;span style=&quot;white-space: pre;&quot;&gt;&#x9;&lt;/span&gt;-Play Store (app)&lt;br&gt;&lt;/div&gt;&lt;div&gt;&lt;span style=&quot;white-space: pre;&quot;&gt;&#x9;&lt;/span&gt;-App Store (app)&lt;br&gt;&lt;/div&gt;" style="text;strokeColor=none;fillColor=none;align=left;verticalAlign=middle;spacingLeft=4;spacingRight=4;overflow=hidden;points=[[0,0.5],[1,0.5]];portConstraint=eastwest;rotatable=0;whiteSpace=wrap;html=1;" parent="1" vertex="1">
          <mxGeometry x="90" y="110" width="160" height="60" as="geometry" />
        </mxCell>
        <mxCell id="ktj9ehFPyblQwlTAzXCF-4" value="DISPOSITIVO (ORDENADOR)" style="verticalAlign=top;align=left;spacingTop=8;spacingLeft=2;spacingRight=12;shape=cube;size=10;direction=south;fontStyle=4;html=1;whiteSpace=wrap;" vertex="1" parent="1">
          <mxGeometry x="314" y="20" width="180" height="180" as="geometry" />
        </mxCell>
        <mxCell id="ktj9ehFPyblQwlTAzXCF-5" value="Accede mediante:&lt;div&gt;&lt;span style=&quot;white-space: pre;&quot;&gt;&#x9;&lt;/span&gt;-Navegador Web&lt;/div&gt;" style="text;strokeColor=none;fillColor=none;align=left;verticalAlign=middle;spacingLeft=4;spacingRight=4;overflow=hidden;points=[[0,0.5],[1,0.5]];portConstraint=eastwest;rotatable=0;whiteSpace=wrap;html=1;" vertex="1" parent="1">
          <mxGeometry x="324" y="130" width="160" height="60" as="geometry" />
        </mxCell>
        <mxCell id="ktj9ehFPyblQwlTAzXCF-6" value="Sistema Operativo" style="text;strokeColor=none;fillColor=none;align=left;verticalAlign=middle;spacingLeft=4;spacingRight=4;overflow=hidden;points=[[0,0.5],[1,0.5]];portConstraint=eastwest;rotatable=0;whiteSpace=wrap;html=1;" vertex="1" parent="1">
          <mxGeometry x="324" y="70" width="160" height="30" as="geometry" />
        </mxCell>
        <mxCell id="ktj9ehFPyblQwlTAzXCF-15" style="edgeStyle=orthogonalEdgeStyle;rounded=0;orthogonalLoop=1;jettySize=auto;html=1;exitX=1;exitY=0.5;exitDx=0;exitDy=0;" edge="1" parent="1" source="ktj9ehFPyblQwlTAzXCF-7" target="GIH3jngs8zzukAOBeERF-12">
          <mxGeometry relative="1" as="geometry" />
        </mxCell>
        <mxCell id="ktj9ehFPyblQwlTAzXCF-7" value="&amp;nbsp;&lt;span style=&quot;white-space: pre;&quot;&gt;&#x9;&lt;/span&gt;-WINDOWS&lt;div&gt;&lt;span style=&quot;white-space: pre;&quot;&gt;&#x9;&lt;/span&gt;-LINUX&lt;br&gt;&lt;/div&gt;&lt;div&gt;&lt;span style=&quot;white-space: pre;&quot;&gt;&#x9;&lt;/span&gt;-MacOS&lt;br&gt;&lt;/div&gt;&lt;div&gt;&lt;span style=&quot;white-space: pre;&quot;&gt;&#x9;&lt;/span&gt;&lt;br&gt;&lt;/div&gt;" style="text;strokeColor=none;fillColor=none;align=left;verticalAlign=middle;spacingLeft=4;spacingRight=4;overflow=hidden;points=[[0,0.5],[1,0.5]];portConstraint=eastwest;rotatable=0;whiteSpace=wrap;html=1;" vertex="1" parent="1">
          <mxGeometry x="334" y="90" width="160" height="50" as="geometry" />
        </mxCell>
        <mxCell id="ktj9ehFPyblQwlTAzXCF-8" value="SERVIDOR DE APLICACIÓN WEB" style="verticalAlign=top;align=left;spacingTop=8;spacingLeft=2;spacingRight=12;shape=cube;size=10;direction=south;fontStyle=4;html=1;whiteSpace=wrap;" vertex="1" parent="1">
          <mxGeometry x="550" y="20" width="220" height="240" as="geometry" />
        </mxCell>
        <mxCell id="ktj9ehFPyblQwlTAzXCF-9" value="Proporciona Acceso a :&lt;div&gt;&lt;span style=&quot;white-space: pre;&quot;&gt;&#x9;&lt;/span&gt;-Index.html&lt;/div&gt;&lt;div&gt;&lt;span style=&quot;white-space: pre;&quot;&gt;&#x9;&lt;/span&gt;-Style.css&lt;br&gt;&lt;/div&gt;&lt;div&gt;&lt;span style=&quot;white-space: pre;&quot;&gt;&#x9;&lt;/span&gt;-usuarios.sql&lt;br&gt;&lt;/div&gt;&lt;div&gt;&lt;span style=&quot;white-space: pre;&quot;&gt;&#x9;&lt;/span&gt;-pedidos.sql&lt;br&gt;&lt;/div&gt;&lt;div&gt;&lt;span style=&quot;white-space: pre;&quot;&gt;&#x9;&lt;/span&gt;-helados.sql&lt;br&gt;&lt;/div&gt;&lt;div&gt;-comentarios_calificaciones.sql&lt;br&gt;&lt;/div&gt;" style="text;strokeColor=none;fillColor=none;align=left;verticalAlign=middle;spacingLeft=4;spacingRight=4;overflow=hidden;points=[[0,0.5],[1,0.5]];portConstraint=eastwest;rotatable=0;whiteSpace=wrap;html=1;" vertex="1" parent="1">
          <mxGeometry x="560" y="130" width="190" height="140" as="geometry" />
        </mxCell>
        <mxCell id="GIH3jngs8zzukAOBeERF-12" value="&lt;div&gt;-HTML&lt;/div&gt;&lt;div&gt;-CSS&lt;/div&gt;&lt;div&gt;-MySQL&lt;/div&gt;" style="text;strokeColor=none;fillColor=none;align=left;verticalAlign=middle;spacingLeft=4;spacingRight=4;overflow=hidden;points=[[0,0.5],[1,0.5]];portConstraint=eastwest;rotatable=0;whiteSpace=wrap;html=1;" parent="1" vertex="1">
          <mxGeometry x="550" y="75" width="220" height="70" as="geometry" />
        </mxCell>
        <mxCell id="ktj9ehFPyblQwlTAzXCF-10" value="Lenguajes que interpreta" style="text;strokeColor=none;fillColor=none;align=left;verticalAlign=middle;spacingLeft=4;spacingRight=4;overflow=hidden;points=[[0,0.5],[1,0.5]];portConstraint=eastwest;rotatable=0;whiteSpace=wrap;html=1;" vertex="1" parent="1">
          <mxGeometry x="551" y="50" width="220" height="30" as="geometry" />
        </mxCell>
        <mxCell id="ktj9ehFPyblQwlTAzXCF-17" style="edgeStyle=orthogonalEdgeStyle;rounded=0;orthogonalLoop=1;jettySize=auto;html=1;exitX=0;exitY=0;exitDx=125;exitDy=0;exitPerimeter=0;" edge="1" parent="1" source="ktj9ehFPyblQwlTAzXCF-11" target="GIH3jngs8zzukAOBeERF-19">
          <mxGeometry relative="1" as="geometry" />
        </mxCell>
        <mxCell id="ktj9ehFPyblQwlTAzXCF-11" value="SERVIDOR DE APLICACIÓN MÓVIL" style="verticalAlign=top;align=left;spacingTop=8;spacingLeft=2;spacingRight=12;shape=cube;size=10;direction=south;fontStyle=4;html=1;whiteSpace=wrap;" vertex="1" parent="1">
          <mxGeometry x="114" y="325" width="230" height="260" as="geometry" />
        </mxCell>
        <mxCell id="GIH3jngs8zzukAOBeERF-7" value="Lenguajes que interpreta" style="text;strokeColor=none;fillColor=none;align=left;verticalAlign=middle;spacingLeft=4;spacingRight=4;overflow=hidden;points=[[0,0.5],[1,0.5]];portConstraint=eastwest;rotatable=0;whiteSpace=wrap;html=1;" parent="1" vertex="1">
          <mxGeometry x="114" y="365" width="280" height="30" as="geometry" />
        </mxCell>
        <mxCell id="GIH3jngs8zzukAOBeERF-8" value="&amp;nbsp;&lt;span style=&quot;white-space: pre;&quot;&gt;&#x9;&lt;/span&gt;-JAVA&lt;div&gt;&lt;span style=&quot;white-space: pre;&quot;&gt;&#x9;&lt;/span&gt;-JS&lt;br&gt;&lt;/div&gt;" style="text;strokeColor=none;fillColor=none;align=left;verticalAlign=middle;spacingLeft=4;spacingRight=4;overflow=hidden;points=[[0,0.5],[1,0.5]];portConstraint=eastwest;rotatable=0;whiteSpace=wrap;html=1;" parent="1" vertex="1">
          <mxGeometry x="114" y="395" width="280" height="30" as="geometry" />
        </mxCell>
        <mxCell id="GIH3jngs8zzukAOBeERF-14" value="&lt;blockquote style=&quot;margin: 0 0 0 40px; border: none; padding: 0px;&quot;&gt;-MySQL&lt;/blockquote&gt;" style="text;strokeColor=none;fillColor=none;align=left;verticalAlign=middle;spacingLeft=4;spacingRight=4;overflow=hidden;points=[[0,0.5],[1,0.5]];portConstraint=eastwest;rotatable=0;whiteSpace=wrap;html=1;" parent="1" vertex="1">
          <mxGeometry x="100" y="425" width="280" height="20" as="geometry" />
        </mxCell>
        <mxCell id="ktj9ehFPyblQwlTAzXCF-12" value="Proporciona Acceso a :&lt;div&gt;&lt;span style=&quot;white-space: pre;&quot;&gt;&#x9;&lt;/span&gt;-Index.html&lt;/div&gt;&lt;div&gt;&lt;span style=&quot;white-space: pre;&quot;&gt;&#x9;&lt;/span&gt;-Style.css&lt;br&gt;&lt;/div&gt;&lt;div&gt;&lt;span style=&quot;white-space: pre;&quot;&gt;&#x9;&lt;/span&gt;-usuarios.sql&lt;br&gt;&lt;/div&gt;&lt;div&gt;&lt;span style=&quot;white-space: pre;&quot;&gt;&#x9;&lt;/span&gt;-pedidos.sql&lt;br&gt;&lt;/div&gt;&lt;div&gt;&lt;span style=&quot;white-space: pre;&quot;&gt;&#x9;&lt;/span&gt;-helados.sql&lt;br&gt;&lt;/div&gt;&lt;div&gt;-comentarios_calificaciones.sql&lt;br&gt;&lt;/div&gt;" style="text;strokeColor=none;fillColor=none;align=left;verticalAlign=middle;spacingLeft=4;spacingRight=4;overflow=hidden;points=[[0,0.5],[1,0.5]];portConstraint=eastwest;rotatable=0;whiteSpace=wrap;html=1;" vertex="1" parent="1">
          <mxGeometry x="124" y="445" width="190" height="140" as="geometry" />
        </mxCell>
        <mxCell id="ktj9ehFPyblQwlTAzXCF-13" value="SERVIDOR DE BASES DE DATOS" style="verticalAlign=top;align=left;spacingTop=8;spacingLeft=2;spacingRight=12;shape=cube;size=10;direction=south;fontStyle=4;html=1;whiteSpace=wrap;" vertex="1" parent="1">
          <mxGeometry x="440" y="325" width="270" height="330" as="geometry" />
        </mxCell>
        <mxCell id="GIH3jngs8zzukAOBeERF-20" value="SERVICIOS&lt;div&gt;&lt;br&gt;&lt;div&gt;-Almacenamiento y gestión de usuarios&lt;/div&gt;&lt;div&gt;-&lt;span style=&quot;background-color: initial;&quot;&gt;Almacenamiento y gestión de pedidos&lt;/span&gt;&lt;/div&gt;&lt;div&gt;Almacenamiento y gestión de productos&lt;span style=&quot;background-color: initial;&quot;&gt;&lt;br&gt;&lt;/span&gt;&lt;/div&gt;&lt;div&gt;Almacenamiento y gestion de comentarios de calificaciones&lt;br&gt;&lt;/div&gt;&lt;/div&gt;" style="text;html=1;align=center;verticalAlign=middle;whiteSpace=wrap;rounded=0;" parent="1" vertex="1">
          <mxGeometry x="440" y="515" width="240" height="150" as="geometry" />
        </mxCell>
        <mxCell id="GIH3jngs8zzukAOBeERF-19" value="&lt;div&gt;PROPORCIONA ESTE CONTENIDO&lt;/div&gt;&lt;div&gt;&lt;span style=&quot;white-space: pre;&quot;&gt;&#x9;&lt;/span&gt;-usuarios.sql&lt;br&gt;&lt;/div&gt;&lt;div&gt;&lt;span style=&quot;white-space: pre;&quot;&gt;&#x9;&lt;/span&gt;-pedidos.sql&lt;br&gt;&lt;/div&gt;&lt;div&gt;&lt;span style=&quot;white-space: pre;&quot;&gt;&#x9;&lt;/span&gt;-helados.sql&lt;br&gt;&lt;/div&gt;&lt;div&gt;&lt;span style=&quot;white-space: pre;&quot;&gt;&#x9;&lt;/span&gt;-comentarios_calificaciones.sql&lt;br&gt;&lt;/div&gt;" style="text;strokeColor=none;fillColor=none;align=left;verticalAlign=middle;spacingLeft=4;spacingRight=4;overflow=hidden;points=[[0,0.5],[1,0.5]];portConstraint=eastwest;rotatable=0;whiteSpace=wrap;html=1;" parent="1" vertex="1">
          <mxGeometry x="440" y="415" width="240" height="120" as="geometry" />
        </mxCell>
        <mxCell id="GIH3jngs8zzukAOBeERF-18" value="-MySQL" style="text;strokeColor=none;fillColor=none;align=left;verticalAlign=middle;spacingLeft=4;spacingRight=4;overflow=hidden;points=[[0,0.5],[1,0.5]];portConstraint=eastwest;rotatable=0;whiteSpace=wrap;html=1;" parent="1" vertex="1">
          <mxGeometry x="450" y="375" width="240" height="60" as="geometry" />
        </mxCell>
        <mxCell id="GIH3jngs8zzukAOBeERF-17" value="UTILIZA:" style="text;strokeColor=none;fillColor=none;align=left;verticalAlign=middle;spacingLeft=4;spacingRight=4;overflow=hidden;points=[[0,0.5],[1,0.5]];portConstraint=eastwest;rotatable=0;whiteSpace=wrap;html=1;" parent="1" vertex="1">
          <mxGeometry x="440" y="365" width="240" height="30" as="geometry" />
        </mxCell>
        <mxCell id="ktj9ehFPyblQwlTAzXCF-16" style="edgeStyle=orthogonalEdgeStyle;rounded=0;orthogonalLoop=1;jettySize=auto;html=1;exitX=1;exitY=1;exitDx=0;exitDy=0;exitPerimeter=0;entryX=0.003;entryY=0.633;entryDx=0;entryDy=0;entryPerimeter=0;" edge="1" parent="1" source="ktj9ehFPyblQwlTAzXCF-8" target="ktj9ehFPyblQwlTAzXCF-13">
          <mxGeometry relative="1" as="geometry" />
        </mxCell>
      </root>
    </mxGraphModel>
  </diagram>
</mxfile>
